<svg xmlns="http://www.w3.org/2000/svg" xmlns:xlink="http://www.w3.org/1999/xlink" viewBox="0 0 2812.91 2810.37"><defs><style>.cls-1{fill:url(#linear-gradient);}.cls-2{fill:#91b3fa;}.cls-3,.cls-7{fill:#fff;}.cls-3{opacity:0.5;}.cls-4{fill:#bdd0fb;}.cls-5{fill:url(#linear-gradient-2);}.cls-6{fill:url(#linear-gradient-3);}.cls-7{opacity:0.58;}.cls-8{fill:url(#linear-gradient-4);}.cls-9{fill:url(#linear-gradient-5);}.cls-10{fill:url(#linear-gradient-6);}.cls-11{fill:url(#linear-gradient-7);}.cls-12{fill:url(#linear-gradient-8);}.cls-13{fill:url(#linear-gradient-9);}.cls-14{fill:url(#linear-gradient-10);}.cls-15{fill:url(#linear-gradient-11);}.cls-16{fill:url(#linear-gradient-12);}.cls-17{fill:url(#linear-gradient-13);}.cls-18{fill:#666694;}.cls-19{fill:url(#linear-gradient-14);}.cls-20{fill:url(#linear-gradient-15);}.cls-21{fill:url(#linear-gradient-16);}.cls-22{fill:url(#linear-gradient-17);}.cls-23{fill:url(#linear-gradient-18);}.cls-24{fill:url(#linear-gradient-19);}.cls-25{fill:url(#linear-gradient-20);}.cls-26{fill:url(#linear-gradient-21);}.cls-27{fill:url(#linear-gradient-22);}.cls-28{opacity:0.3;}.cls-29{fill:#7d97f4;}</style><linearGradient id="linear-gradient" x1="3156.86" y1="3608.07" x2="681.08" y2="533.3" gradientUnits="userSpaceOnUse"><stop offset="0" stop-color="#dae3fe"/><stop offset="1" stop-color="#e9effd"/></linearGradient><linearGradient id="linear-gradient-2" x1="2437.69" y1="84.56" x2="495.75" y2="2880.55" gradientUnits="userSpaceOnUse"><stop offset="0" stop-color="#09005d"/><stop offset="1" stop-color="#1a0f91"/></linearGradient><linearGradient id="linear-gradient-3" x1="694.68" y1="3029.55" x2="2377.33" y2="-537.66" gradientUnits="userSpaceOnUse"><stop offset="0" stop-color="#4f52ff"/><stop offset="1" stop-color="#4042e2"/></linearGradient><linearGradient id="linear-gradient-4" x1="1636.13" y1="-185.28" x2="959.81" y2="704.4" xlink:href="#linear-gradient-2"/><linearGradient id="linear-gradient-5" x1="1710.32" y1="-128.89" x2="1034" y2="760.79" xlink:href="#linear-gradient-2"/><linearGradient id="linear-gradient-6" x1="1625.09" y1="-74.47" x2="1158.11" y2="783.01" xlink:href="#linear-gradient-3"/><linearGradient id="linear-gradient-7" x1="2779.03" y1="-475.49" x2="2392.71" y2="168.37" gradientUnits="userSpaceOnUse"><stop offset="0" stop-color="#ff928e"/><stop offset="1" stop-color="#fe7062"/></linearGradient><linearGradient id="linear-gradient-8" x1="1977.38" y1="634.18" x2="1148.73" y2="1812.16" xlink:href="#linear-gradient-7"/><linearGradient id="linear-gradient-9" x1="5108.09" y1="2766.26" x2="5218.99" y2="2766.26" gradientTransform="matrix(-1, 0, 0, 1, 7904.31, 0)" xlink:href="#linear-gradient-2"/><linearGradient id="linear-gradient-10" x1="5119.34" y1="2714.72" x2="5164.32" y2="2714.72" gradientTransform="matrix(-1, 0, 0, 1, 7904.31, 0)" gradientUnits="userSpaceOnUse"><stop offset="0" stop-color="#febbba"/><stop offset="1" stop-color="#ff928e"/></linearGradient><linearGradient id="linear-gradient-11" x1="5343.93" y1="2764.48" x2="5517.94" y2="2764.48" gradientTransform="matrix(-1, 0, 0, 1, 7904.31, 0)" xlink:href="#linear-gradient-2"/><linearGradient id="linear-gradient-12" x1="5346.58" y1="2694.75" x2="5391.31" y2="2694.75" xlink:href="#linear-gradient-10"/><linearGradient id="linear-gradient-13" x1="5091.4" y1="2297.99" x2="5396.33" y2="2297.99" gradientTransform="matrix(-1, 0, 0, 1, 7904.31, 0)" xlink:href="#linear-gradient-2"/><linearGradient id="linear-gradient-14" x1="2530.68" y1="1173.85" x2="2151.14" y2="2149.81" gradientUnits="userSpaceOnUse"><stop offset="0" stop-color="#e1473d"/><stop offset="1" stop-color="#e9605a"/></linearGradient><linearGradient id="linear-gradient-15" x1="5645.84" y1="1385.03" x2="5812.08" y2="1385.03" xlink:href="#linear-gradient-10"/><linearGradient id="linear-gradient-16" x1="3094.65" y1="833.71" x2="2864.21" y2="1192.92" xlink:href="#linear-gradient-7"/><linearGradient id="linear-gradient-17" x1="6022.25" y1="1421.28" x2="5663.07" y2="1868.14" xlink:href="#linear-gradient-10"/><linearGradient id="linear-gradient-18" x1="6090.35" y1="1476.01" x2="5731.17" y2="1922.88" xlink:href="#linear-gradient-10"/><linearGradient id="linear-gradient-19" x1="5618.17" y1="1151.21" x2="5270.29" y2="1790.4" xlink:href="#linear-gradient-10"/><linearGradient id="linear-gradient-20" x1="4238.93" y1="6717.89" x2="4085.19" y2="6921.28" gradientTransform="matrix(-0.82, -0.58, -0.58, 0.82, 9733.2, -1774.95)" xlink:href="#linear-gradient-10"/><linearGradient id="linear-gradient-21" x1="2362.82" y1="1253.65" x2="2549.7" y2="1600.72" xlink:href="#linear-gradient-2"/><linearGradient id="linear-gradient-22" x1="4013.76" y1="6878.96" x2="4137.07" y2="6752.44" gradientTransform="matrix(-0.82, -0.58, -0.58, 0.82, 9733.2, -1774.95)" xlink:href="#linear-gradient-10"/></defs><g id="Layer_2" data-name="Layer 2"><g id="Illustration"><path class="cls-1" d="M2475.76,2395.49c-56.87,59.87-110.68,98.48-153.19,129-499.73,358.56-1091,254-1216.7,228.52-185.58-37.7-544.29-110.55-803.63-415.53C-90.13,1876.05-29,1149.11,275.31,669.24,331,581.47,625,94.29,1222.72,16.17c361.71-47.28,783.34,48.08,1088.68,303.89C2952.33,857,2906.7,1941.81,2475.76,2395.49Z"/><path class="cls-2" d="M.88,815.42a5.53,5.53,0,0,1,7.65-7.62c79.5,50.83,359.18,254.32,448.28,650.12,81.51,362.13,79.38,629.55,74.57,729a25.75,25.75,0,0,1-39.4,20.59c-98.84-62-366.54-250.16-399.87-487.16C52.27,1437.13,149.91,1055,.88,815.42Z"/><path class="cls-3" d="M175.13,1083.89S397.36,1323,508.23,2178.61C508.23,2178.61,351.26,1324.62,175.13,1083.89Z"/><path class="cls-4" d="M419.76,11.57c-81.59,202.18-508.32,1398.11,542,2000.13,0,0,483.61-715-510.31-2004.54A18.44,18.44,0,0,0,419.76,11.57Z"/><path class="cls-3" d="M480.62,228.74c-2.14,73.15-1.22,146.51,1.14,219.72s6.62,146.4,12.63,219.41c12.07,146,31.05,291.5,59.51,435.16s66.48,285.52,119.38,421.88c13.1,34.13,27.51,67.73,42.75,100.92s31.67,65.83,49.35,97.75a1177.31,1177.31,0,0,0,122,181.17l0,0a6.87,6.87,0,1,1-10.62,8.72v0a1190.75,1190.75,0,0,1-122.57-183.78q-26.55-48.43-49.32-98.78c-15.2-33.51-29.55-67.4-42.58-101.79-52.59-137.44-90-280.13-118-424.24s-46.26-290.1-57.7-436.42Q478.08,558.74,475,448.67c-2-73.36-2.62-146.73-.14-220.17a2.91,2.91,0,1,1,5.82.2Z"/><path class="cls-5" d="M472.8,497.75a172.9,172.9,0,0,1,172.91-172.9H2116.08a152.32,152.32,0,0,1,152.13,144.59L2376.75,2601.2a112.33,112.33,0,0,1-110.15,118L581.37,2749.86A106.63,106.63,0,0,1,472.8,2643.25Z"/><path class="cls-2" d="M827.67,2713.62h0l-188.57-2.44c-63.06-.82-114.35-52.78-114.35-115.84v-284.7a4,4,0,1,1,8,0v284.7c0,58.67,47.73,107,106.4,107.79l188.57,2.44a4,4,0,0,1-.05,8Z"/><path class="cls-2" d="M528.72,2226.48a4,4,0,0,1-4-4v-46.11a4,4,0,0,1,8,0v46.11A4,4,0,0,1,528.72,2226.48Z"/><path class="cls-6" d="M593.26,357.66a50.23,50.23,0,0,1,57-50.09C851,334.8,1541.49,419,2112.37,375.19a46.44,46.44,0,0,1,50,43.8l113.81,2141.27a53.45,53.45,0,0,1-50.21,56.21c-240.1,14.21-1228.91,69.13-1581.6,32.19a42.35,42.35,0,0,1-37.89-41.9Z"/><path class="cls-4" d="M616.92,411.32a48.32,48.32,0,0,1,54.81-48.2c193.24,26.2,857.71,107.24,1407.09,65.07A44.7,44.7,0,0,1,2127,470.34L2236.47,2531a51.43,51.43,0,0,1-48.32,54.09c-231.06,13.67-1182.63,66.53-1522,31a40.74,40.74,0,0,1-36.46-40.32Z"/><rect class="cls-7" x="735.14" y="597.83" width="1336.67" height="109.15" rx="10.42"/><rect class="cls-7" x="736.65" y="803.41" width="947.18" height="548.14" rx="10.42"/><rect class="cls-7" x="735.14" y="1589.38" width="1336.85" height="68.69" rx="5.86"/><rect class="cls-7" x="738.94" y="1464.19" width="495.08" height="66.01" rx="5.86"/><rect class="cls-7" x="735.14" y="1718.94" width="1336.85" height="68.14" rx="4.28"/><rect class="cls-7" x="735.14" y="1846.98" width="1336.85" height="63.26" rx="4.28"/><rect class="cls-7" x="744.87" y="2165.04" width="1336.85" height="68.69" rx="5.86"/><rect class="cls-7" x="748.67" y="2039.84" width="495.08" height="66.01" rx="5.86"/><rect class="cls-7" x="744.87" y="2294.59" width="1336.85" height="68.14" rx="4.28"/><rect class="cls-7" x="744.87" y="2422.63" width="1336.85" height="63.26" rx="4.28"/><path class="cls-8" d="M1472.09,34.2C1419-2.75,1372.79-2,1340.28,7.57a64.84,64.84,0,0,0-46,68.17l14,153,166.83,14.81S1576.25,106.66,1472.09,34.2Zm-73.37,123.45a41.6,41.6,0,1,1,41.6-41.6A41.6,41.6,0,0,1,1398.72,157.65Z"/><path class="cls-2" d="M1324.91,164.4a4,4,0,0,1-4-3.66l-2.23-24.37a4,4,0,1,1,8-.73l2.23,24.37a4,4,0,0,1-3.64,4.37A2.3,2.3,0,0,1,1324.91,164.4Zm-4.37-47.76a4,4,0,0,1-4-3.66l-1.69-18.5a61.88,61.88,0,0,1,43.88-64.94,124.7,124.7,0,0,1,61-2.51,4,4,0,1,1-1.61,7.89A116.8,116.8,0,0,0,1361,37.26a53.84,53.84,0,0,0-38.15,56.49l1.7,18.5a4,4,0,0,1-3.64,4.38Z"/><path class="cls-9" d="M1080.55,327.67V250.73a47,47,0,0,1,48.56-46.92L1659.56,222a45.66,45.66,0,0,1,44,42.9l4.44,73.93Z"/><path class="cls-2" d="M1278.34,232.8h-22.81a4,4,0,0,1,0-8.05h22.81a4,4,0,1,1,0,8.05Z"/><path class="cls-2" d="M1109.26,303.51a4,4,0,0,1-4-4V268.36a43.66,43.66,0,0,1,43.61-43.61h83.87a4,4,0,0,1,0,8.05h-83.87a35.6,35.6,0,0,0-35.56,35.56v31.12A4,4,0,0,1,1109.26,303.51Z"/><path class="cls-10" d="M864.42,347.09a50,50,0,0,1,49.92-47.58l927.59,0a68.56,68.56,0,0,1,67.56,56.87l.79,4.53a58.89,58.89,0,0,1-58,68.93H900.61a38.28,38.28,0,0,1-38.24-40.12Z"/><path class="cls-11" d="M2059.25,1640.34H1315.58a54.36,54.36,0,0,1-54.36-54.36V1101.74a54.36,54.36,0,0,1,51.34-54.28l772.36-43.05a54.36,54.36,0,0,1,57.3,57.23l-28.69,527.29A54.36,54.36,0,0,1,2059.25,1640.34Z"/><path class="cls-12" d="M1704.78,1348.15l406.51-338.55a53.93,53.93,0,0,0-26.37-5.19l-772.36,43.05a54.18,54.18,0,0,0-34.25,14.72l304.24,282.94C1615.58,1375.84,1669.91,1377.18,1704.78,1348.15Z"/><path class="cls-3" d="M1648.27,1331.37a85.16,85.16,0,0,1-56.5-21.51l-114.63-101.19a8.12,8.12,0,0,1,10.75-12.18l114.63,101.19a68.85,68.85,0,0,0,86.17,4.31l59.4-42.69a8.13,8.13,0,1,1,9.48,13.2l-59.4,42.69A85.3,85.3,0,0,1,1648.27,1331.37Z"/><path class="cls-3" d="M1439.87,1173.05a8.09,8.09,0,0,1-5.37-2l-15.44-13.63a8.13,8.13,0,0,1,10.76-12.18l15.43,13.63a8.12,8.12,0,0,1-5.38,14.21Z"/><path class="cls-13" d="M2780.78,2727.18s12.32,19.42,15.42,73.81a8.85,8.85,0,0,1-8.8,9.38H2691a5.68,5.68,0,0,1-5.4-7.47c5.65-16.72,22.72-57.47,60.83-80.76Z"/><path class="cls-14" d="M2785,2690.33l-5.45,45.71a8.59,8.59,0,0,1-7.51,7.55,75.94,75.94,0,0,1-20.38-.19,14.12,14.12,0,0,1-11.64-14v-44.13Z"/><path class="cls-15" d="M2542.32,2722.14s18.45,28.67,18,68a17,17,0,0,1-17.12,16.66H2393.56a7.17,7.17,0,0,1-4.12-13c28.32-19.89,84-57.05,124.26-71.65Z"/><path class="cls-16" d="M2557.73,2672.78l-11.62,56.45a11.64,11.64,0,0,1-13.77,9.15,42,42,0,0,1-13.16-5.5,13.36,13.36,0,0,1-6-13.64l12-68.39Z"/><path class="cls-17" d="M2763.61,1887.9s40.43,35.64,48,78.53-21.56,739.87-21.56,739.87-40.43,6.72-61.27-5.9c0,0-24.71-452.35-43.5-556.87,0,0-98.53,468.57-125.83,553.23,0,0-38.95,4.74-51.51-2.67,0,0,25.81-607.4,58.24-715.38Z"/><path class="cls-18" d="M2686.5,2127a2.89,2.89,0,0,1-.65-.08,2.55,2.55,0,0,1-1.82-3.1l17.18-65.88a2.57,2.57,0,0,1,1.08-1.5l37.1-23.79a2.54,2.54,0,1,1,2.75,4.27l-36.27,23.26L2689,2125.08A2.54,2.54,0,0,1,2686.5,2127Z"/><path class="cls-19" d="M2364.65,1485.17c170.19-14.13,214.67,21.09,214.67,21.09l-81.79,129.12s-167.23-3.31-287.05-95.66c22.42-24.15,38-50.84,48-71.63C2289.37,1480.93,2325,1488.46,2364.65,1485.17Z"/><path class="cls-20" d="M2098.13,1235.35a5.22,5.22,0,0,1,9.94-2l21.72,46.34a48.29,48.29,0,0,1,3.85,28.72l-7.62,27a46.55,46.55,0,0,0,9.5,37.06c19.95,24.94,62.45,70.5,122.95,95.64-10,20.79-25.57,47.48-48,71.63-44-33.89-81.56-79.75-102.16-141.86a22.77,22.77,0,0,1-16.07-22.63Z"/><path class="cls-21" d="M2308.63,1560c59.91-64.56,174-93.73,240.11-105.71a60.6,60.6,0,0,1,67.73,38.43c29.74,79.93,110.61,287.88,126.28,323.62,12.86,29.32,26.29,58,34.82,75.86a21.49,21.49,0,0,1-10,28.64c-55.59,26.79-155.62,57.11-196.17,68.94a13.91,13.91,0,0,1-17.8-13.39,43.53,43.53,0,0,0-6.2-22.37l-153.58-255.93c-95.73,106.14-179.56,115.84-244,92.61a484.41,484.41,0,0,0,21.31-100.58C2266.28,1673.85,2308.63,1560,2308.63,1560Z"/><path class="cls-22" d="M2013.89,1672.33l17.17-22.89c55.58,38.17,102.05,47.22,140.08,40.71a484.41,484.41,0,0,1-21.31,100.58C2065,1760.12,2013.89,1672.33,2013.89,1672.33Z"/><path class="cls-23" d="M2026,1672.75l-96.73,3.77-89.06-49.74c12.78-8,85.07,8.36,85.07,8.36s75.58-11.43,96-11.45c17,0,14.56,24.4,13.25,32.68-.27,1.69-.49,2.71-.49,2.71Z"/><path class="cls-24" d="M2457.86,1335.75l51,124.54s-58.64,40.59-105.82,36.73l-25.47-112Z"/><path class="cls-25" d="M2371.64,1250.85c-1.17,1.66-36.92,130.82-36.92,130.82l74.18,18.84L2461,1283.13S2391.21,1223.13,2371.64,1250.85Z"/><path class="cls-26" d="M2433,1301l-22.57,63.94a9.38,9.38,0,0,1-1.18,2.29c-3.06,4.36-14.7,18.56-28.5,5.76-12.53-11.6-24.13-22-34.85-23.9a9.46,9.46,0,0,0-10.77,6.8c-3.25,11.73-10.07,38.31-12.48,62.31a9.47,9.47,0,0,0,7.69,10.19c14.49,2.75,45.21,7.7,70.85,5.89a9.46,9.46,0,0,0,8-5.5c7.07-15.44,28.73-62.3,36.78-74.43,7.56-11.38,26.09-11.06,33.86-10.37a9.27,9.27,0,0,0,7-2.28c6.8-6,19.74-21.18,1.54-39.39a9.48,9.48,0,0,1,.22-13.65c7.81-7.35,16.17-20.39,3.15-36.56-13.24-16.43-30.71-13.81-41.42-9.91a9.47,9.47,0,0,1-11.4-4.21c-1.34-2.26-3.68-4-7.73-3.61a9.35,9.35,0,0,1-10-9.57c.19-10.53-3.57-23.83-21.84-29.51-32.4-10.09-52.61,21.22-54.61,44.58s33.75,32.3,54.78,30.72c16-1.2,27.85,14.65,32.62,22.31A9.37,9.37,0,0,1,2433,1301Z"/><path class="cls-27" d="M2437.54,1377.51s5.23-40.55,22.11-42.54,33.29,11.88,16.51,34.64C2455.3,1397.93,2437.54,1377.51,2437.54,1377.51Z"/><g class="cls-28"><path class="cls-29" d="M1920,505.45a10,10,0,0,1,6.79,12.42c-3,10.3-5.64,20.9-7.78,31.48a10,10,0,0,1-11.6,7.86l-.19,0a10,10,0,0,1-7.83-11.79c2.26-11.14,5-22.29,8.19-33.14a10,10,0,0,1,11.39-7A9.58,9.58,0,0,1,1920,505.45Zm-7.87,96.12c-.68,10.77-.9,21.67-.67,32.41a10,10,0,0,1-20,.44c-.25-11.3,0-22.77.7-34.11a10,10,0,0,1,10.62-9.36,11.53,11.53,0,0,1,1.18.15A10,10,0,0,1,1912.17,601.57Zm4.16,84.83c1.73,10.62,4,21.29,6.58,31.73a10,10,0,1,1-19.4,4.91c-2.78-11-5.12-22.24-6.94-33.42a10,10,0,1,1,19.76-3.22Zm23,81.77c4.06,10,8.61,19.89,13.51,29.48a10,10,0,0,1-17.82,9.11c-5.16-10.09-9.94-20.53-14.23-31a10,10,0,1,1,18.54-7.56Zm40.67,74.6c6.17,8.8,12.8,17.47,19.71,25.75a10,10,0,0,1-15.37,12.83c-7.27-8.71-14.25-17.83-20.73-27.1A10,10,0,0,1,1980,842.77Zm56.17,63.74c8,7.24,16.35,14.22,24.91,20.75A10,10,0,0,1,2049,943.17c-9-6.87-17.83-14.22-26.22-21.83a10,10,0,0,1,13.46-14.83Zm359.51,94.29a10,10,0,0,1-7.27,12.14c-11,2.76-22.24,5.07-33.44,6.88a10,10,0,1,1-3.19-19.76c10.64-1.72,21.33-3.91,31.76-6.53a10,10,0,0,1,12.14,7.27Zm-290.66-44.61c9.38,5.28,19.1,10.21,28.89,14.66a10,10,0,0,1-8.28,18.23c-10.32-4.69-20.55-9.89-30.43-15.45a10,10,0,0,1,6.71-18.57A10.14,10.14,0,0,1,2105.05,956.19Zm204.53,58.4a10,10,0,0,1-9.81,10.21c-11.32.22-22.8,0-34.12-.77a10,10,0,0,1,1.29-20c10.76.69,21.67.94,32.43.72a11.06,11.06,0,0,1,2,.16A10,10,0,0,1,2309.58,1014.59Zm-126.31-25.36c10.31,3,20.89,5.68,31.45,7.84a10,10,0,0,1-3.8,19.65l-.2,0c-11.12-2.27-22.26-5-33.12-8.25a10,10,0,1,1,5.67-19.2Z"/><path class="cls-29" d="M2454.14,970.18a9.92,9.92,0,0,0-5.94.73c-4.69,2.14-9.51,4.21-14.32,6.17a10,10,0,1,0,7.54,18.54c5.06-2,10.13-4.24,15.07-6.49a10,10,0,0,0-2.35-19Z"/></g><g class="cls-28"><path class="cls-29" d="M2660.46,745.35a10,10,0,0,0-11.22,6.52c-1.72,4.86-3.57,9.78-5.5,14.6a10,10,0,0,0,18.59,7.43c2-5.07,4-10.24,5.78-15.37a10,10,0,0,0-6.1-12.77A10.74,10.74,0,0,0,2660.46,745.35Z"/><path class="cls-29" d="M2382.67,235.89a10,10,0,1,1-4.56,19.49c-10.25-2.4-20.76-4.39-31.35-6a10,10,0,1,1,2.93-19.8q6.89,1,13.68,2.26C2369.84,233.06,2376.33,234.4,2382.67,235.89Zm-77.46-.46a10,10,0,0,1-10.12,9.89c-10.61-.11-21.34.21-31.9,1a10,10,0,1,1-1.45-20c11.11-.81,22.41-1.16,33.57-1a10.53,10.53,0,0,1,1.7.16A10,10,0,0,1,2305.21,235.43Zm129.59,16.48c10.4,4,20.77,8.48,30.82,13.35a10,10,0,0,1-8.73,18c-9.55-4.63-19.39-8.9-29.26-12.69A10,10,0,0,1,2433,251.4,9.89,9.89,0,0,1,2434.8,251.91Zm-215.2-10.19a10,10,0,0,1-7.7,11.88c-10.37,2.21-20.76,4.89-30.89,8a10,10,0,0,1-5.81-19.16c10.67-3.23,21.61-6.06,32.52-8.39a10,10,0,0,1,11.88,7.7Zm293.31,50.62c9.26,6.18,18.38,12.84,27.11,19.8a10,10,0,1,1-12.47,15.65c-8.3-6.61-17-12.93-25.75-18.8a10,10,0,1,1,11.11-16.65Zm67.35,56.59c7.7,8.07,15.15,16.56,22.14,25.23a10,10,0,1,1-15.58,12.57c-6.64-8.24-13.72-16.31-21-24a10,10,0,1,1,14.48-13.82Zm53.42,69.92c5.76,9.56,11.18,19.47,16.12,29.46a10,10,0,0,1-18,8.87c-4.68-9.49-9.84-18.91-15.32-28a10,10,0,0,1,17.15-10.34Zm36.89,79.91c3.53,10.59,6.65,21.45,9.28,32.29a10,10,0,0,1-19.46,4.7c-2.49-10.28-5.45-20.6-8.81-30.66a10,10,0,0,1,19-6.33ZM2689,584.87c1.11,11.08,1.76,22.35,1.93,33.51a10,10,0,0,1-20,.31c-.17-10.6-.78-21.31-1.84-31.83a10,10,0,0,1,9-11,10.43,10.43,0,0,1,2.8.11A10,10,0,0,1,2689,584.87Zm-.92,88c-1,8.15-2.22,16.36-3.69,24.42-.53,2.92-1.09,5.82-1.69,8.72a9.89,9.89,0,0,1-11.81,7.79,10,10,0,0,1-7.8-11.82c.57-2.75,1.1-5.51,1.61-8.28,1.4-7.66,2.58-15.47,3.51-23.22a10,10,0,0,1,11.13-8.74,6,6,0,0,1,.61.09A10,10,0,0,1,2688.09,672.83Z"/><path class="cls-29" d="M2130,261.16a10,10,0,0,0-6,.75c-4.92,2.27-9.89,4.69-14.76,7.18a10,10,0,0,0,9.12,17.82c4.63-2.37,9.35-4.66,14-6.82a10,10,0,0,0-2.4-18.93Z"/></g><path class="cls-29" d="M2070.41,422.08a4.68,4.68,0,0,0-1.32,5.27l20.79,53a247.94,247.94,0,0,0-36.58,71.54l-55.1,14.21a4.68,4.68,0,0,0-3.49,4.16l-5.43,68.08a4.68,4.68,0,0,0,2.79,4.66l52.14,22.76A248,248,0,0,0,2069,742.21l-28.93,49a4.69,4.69,0,0,0,.47,5.41l44.3,52a4.67,4.67,0,0,0,5.27,1.32l53-20.79a248,248,0,0,0,71.55,36.58l14.21,55.1a4.68,4.68,0,0,0,4.15,3.49l68.08,5.43a4.68,4.68,0,0,0,4.66-2.79l22.77-52.14A248.22,248.22,0,0,0,2405,850.06L2454,879a4.69,4.69,0,0,0,5.41-.47l52-44.3a4.67,4.67,0,0,0,1.32-5.27l-20.78-53a248,248,0,0,0,36.58-71.55l55.09-14.21a4.68,4.68,0,0,0,3.5-4.15l5.43-68.08a4.68,4.68,0,0,0-2.79-4.66l-52.15-22.77a248.21,248.21,0,0,0-24.77-76.44l28.92-49a4.66,4.66,0,0,0-.47-5.41l-44.29-52a4.68,4.68,0,0,0-5.27-1.32l-53,20.78a247.94,247.94,0,0,0-71.54-36.58l-14.21-55.09a4.69,4.69,0,0,0-4.16-3.5l-68.08-5.43a4.68,4.68,0,0,0-4.66,2.79l-22.76,52.15a248.12,248.12,0,0,0-76.44,24.77l-49-28.92a4.66,4.66,0,0,0-5.41.47Z"/><path class="cls-2" d="M2312.94,563.14a68.62,68.62,0,1,1-9.76-2.53A68.73,68.73,0,0,1,2312.94,563.14Zm1.25,112.21A52.63,52.63,0,1,0,2274,678a54.78,54.78,0,0,0,7.55,2A52.26,52.26,0,0,0,2314.19,675.35Z"/><path class="cls-2" d="M2322.37,463.32q-8.49-1.54-17.2-2.25h0c-1.83-.14-3.66-.26-5.49-.35a170.29,170.29,0,0,0-27,.87l-.37,0-1,.13-2,.25a4,4,0,0,0,1.06,7.94A160.91,160.91,0,0,1,2452,642.12a165,165,0,0,1-2.14,16.41A160.84,160.84,0,0,1,2279,789.61c-88.41-7.06-154.54-84.69-147.49-173.06a160.79,160.79,0,0,1,29.28-80.49,4,4,0,0,0-6.52-4.65,168.61,168.61,0,0,0-30.74,84.5c-7.41,92.78,62.08,174.28,154.83,181.68a168.8,168.8,0,0,0,44-334.27Z"/><g class="cls-28"><path class="cls-29" d="M1630.37,184.4a6.18,6.18,0,0,0-6.63,3.3c-2.36,4.69-4.61,9.51-6.68,14.34a6.18,6.18,0,1,0,11.36,4.88c2-4.6,4.12-9.19,6.37-13.67A6.19,6.19,0,0,0,1632,185,6.06,6.06,0,0,0,1630.37,184.4Z"/><path class="cls-29" d="M1613.61,228.8a6.18,6.18,0,0,1,4.21,7.66,257.69,257.69,0,0,0-5.94,25.25c-.33,1.79-.63,3.59-.92,5.39a6.19,6.19,0,0,1-7.09,5.12,6.39,6.39,0,0,1-5.12-7.09q.45-2.83,1-5.64A270.4,270.4,0,0,1,1606,233a6.19,6.19,0,0,1,7-4.36Zm-5.75,69.54a256.61,256.61,0,0,0,.75,31.38,6.18,6.18,0,1,1-12.32,1,267.2,267.2,0,0,1-.78-32.89,6.18,6.18,0,1,1,12.35.46Zm5.37,62.44a254.37,254.37,0,0,0,8.43,30.24,6.18,6.18,0,0,1-11.68,4.05,266.67,266.67,0,0,1-8.84-31.71,6.18,6.18,0,0,1,4.75-7.34,6.27,6.27,0,0,1,2.4,0A6.19,6.19,0,0,1,1613.23,360.78Zm20.54,59.2a256,256,0,0,0,15.57,27.25A6.18,6.18,0,0,1,1639,454a266.76,266.76,0,0,1-16.33-28.57,6.18,6.18,0,1,1,11.09-5.47Zm34.37,52.4A258.31,258.31,0,0,0,1689.87,495a6.19,6.19,0,0,1-8.39,9.09,271.57,271.57,0,0,1-22.77-23.74,6.18,6.18,0,0,1,9.43-8Zm46.06,42.47a255.34,255.34,0,0,0,26.57,16.65,6.18,6.18,0,1,1-5.91,10.86A266.4,266.4,0,0,1,1707,524.9a6.19,6.19,0,0,1,4.72-11.11A6.07,6.07,0,0,1,1714.2,514.85Zm55,29.9a252.31,252.31,0,0,0,29.87,9.62,6.19,6.19,0,0,1-3.06,12,268.34,268.34,0,0,1-31.32-10.1,6.18,6.18,0,1,1,4.51-11.51Zm98.19,23.79a6.18,6.18,0,0,1-6.21,6.15,270.86,270.86,0,0,1-28.54-1.67c-1.44-.15-2.87-.33-4.31-.51a6.12,6.12,0,0,1-5.33-6.93,6.18,6.18,0,0,1,6.92-5.34c1.34.18,2.69.34,4.07.49a257.61,257.61,0,0,0,27.25,1.6,5.6,5.6,0,0,1,1.09.1A6.18,6.18,0,0,1,1867.4,568.54Z"/></g><g class="cls-28"><path class="cls-29" d="M1913.93,45.72a268.64,268.64,0,0,1,31.32,8.13,6.18,6.18,0,1,1-3.82,11.76,256.47,256.47,0,0,0-29.88-7.76,6.18,6.18,0,0,1,2.3-12.15ZM1887.55,48a6.18,6.18,0,0,1-6.62,5.71,261,261,0,0,0-30.89-.42,6.18,6.18,0,0,1-.57-12.35,271.07,271.07,0,0,1,32.37.44l.66.09A6.18,6.18,0,0,1,1887.55,48Zm87.83,17.7a270.15,270.15,0,0,1,28.44,15.47,6.19,6.19,0,0,1-6.56,10.49,254.51,254.51,0,0,0-27.12-14.76,6.18,6.18,0,0,1,5.24-11.2Zm-151-16.21a6.18,6.18,0,0,1-5.05,7.13,253.8,253.8,0,0,0-30.07,7.05,6.18,6.18,0,0,1-3.55-11.84,265.89,265.89,0,0,1,31.54-7.4,6.2,6.2,0,0,1,7.13,5.06ZM2030.15,100A266.77,266.77,0,0,1,2054,121.85a6.18,6.18,0,0,1-8.89,8.6,255,255,0,0,0-22.77-20.84,6.18,6.18,0,1,1,7.78-9.61Zm44.95,46.4a270.57,270.57,0,0,1,18,26.93,6.18,6.18,0,0,1-10.68,6.23,257.82,257.82,0,0,0-17.14-25.69,6.18,6.18,0,0,1,6-9.81A6.1,6.1,0,0,1,2075.1,146.4Zm32.56,55.84a266.84,266.84,0,0,1,11,30.47,6.18,6.18,0,0,1-11.86,3.48,252.32,252.32,0,0,0-10.48-29.05,6.19,6.19,0,0,1,11.36-4.9Z"/><path class="cls-29" d="M1758.66,62.72a6.15,6.15,0,0,0-3.59.43c-4.85,2.13-9.65,4.41-14.28,6.78a6.19,6.19,0,1,0,5.64,11c4.41-2.26,9-4.44,13.61-6.48a6.18,6.18,0,0,0-1.38-11.74Z"/></g><path class="cls-29" d="M1714.59,171.85a3.14,3.14,0,0,0-.88,3.53l13.91,35.46a165.87,165.87,0,0,0-24.48,47.88l-36.87,9.51a3.14,3.14,0,0,0-2.34,2.78l-3.63,45.55a3.12,3.12,0,0,0,1.87,3.12l34.89,15.24a166.11,166.11,0,0,0,16.58,51.15l-19.36,32.81a3.14,3.14,0,0,0,.32,3.62l29.64,34.78a3.13,3.13,0,0,0,3.52.89l35.47-13.91a166.09,166.09,0,0,0,47.88,24.47l9.51,36.87a3.14,3.14,0,0,0,2.78,2.34l45.55,3.63a3.12,3.12,0,0,0,3.12-1.86l15.24-34.9a165.7,165.7,0,0,0,51.14-16.58l32.82,19.36a3.14,3.14,0,0,0,3.62-.31l34.78-29.65a3.11,3.11,0,0,0,.88-3.52l-13.91-35.47a165.68,165.68,0,0,0,24.48-47.87l36.87-9.51a3.15,3.15,0,0,0,2.34-2.79l3.63-45.55a3.13,3.13,0,0,0-1.87-3.12l-34.89-15.23a165.85,165.85,0,0,0-16.58-51.15L2030,200.6a3.14,3.14,0,0,0-.31-3.62L2000,162.2a3.13,3.13,0,0,0-3.52-.88L1961,175.23a166.06,166.06,0,0,0-47.87-24.48l-9.51-36.87a3.12,3.12,0,0,0-2.79-2.33l-45.55-3.64a3.16,3.16,0,0,0-3.12,1.87L1837,144.67a165.94,165.94,0,0,0-51.15,16.58L1753,141.89a3.14,3.14,0,0,0-3.62.32Z"/><path class="cls-29" d="M1877.14,265.46a46.63,46.63,0,1,1-6.71-1.74A46.94,46.94,0,0,1,1877.14,265.46Zm17.57,55.33a34.39,34.39,0,0,0-21.53-43.62h0a34.4,34.4,0,0,0-22.1,65.15,35.2,35.2,0,0,0,4.89,1.27A34.46,34.46,0,0,0,1894.71,320.79Z"/><path class="cls-2" d="M1883.7,196q-5.78-1-11.74-1.53a117.5,117.5,0,0,0-23.72.51l-1.06.14a6.19,6.19,0,0,0-5.27,5,6.29,6.29,0,0,0,0,1.94,6.19,6.19,0,0,0,6.94,5.3,103.88,103.88,0,0,1,22.16-.57h0l1.22.1a103,103,0,0,1,48.09,16.89,104.84,104.84,0,0,1,21,18.53l.15.18c.15.18.31.35.46.54a103.42,103.42,0,0,1,24.54,75.79,106.28,106.28,0,0,1-1.39,10.62,104.1,104.1,0,0,1-206.13-27.18,105,105,0,0,1,1.37-10.48,103.84,103.84,0,0,1,17.58-41.62,6,6,0,0,0,1-2.48,6.18,6.18,0,0,0-11.11-4.7,116.19,116.19,0,0,0-19.68,46.57,117.56,117.56,0,0,0-1.54,11.73,116.46,116.46,0,0,0,230.62,30.4,119.4,119.4,0,0,0,1.55-11.88A116.62,116.62,0,0,0,1883.7,196Z"/></g></g></svg>