<svg xmlns="http://www.w3.org/2000/svg" xmlns:xlink="http://www.w3.org/1999/xlink" viewBox="0 0 413.11 92.45"><defs><style>.cls-1{fill:url(#linear-gradient);}.cls-2{isolation:isolate;}.cls-3{fill:#333;}</style><linearGradient id="linear-gradient" y1="47.78" x2="85.79" y2="47.78" gradientTransform="matrix(1, 0, 0, -1, 0, 94)" gradientUnits="userSpaceOnUse"><stop offset="0" stop-color="#92278f"/><stop offset="1" stop-color="#ee2a7b"/></linearGradient></defs><g id="Layer_2" data-name="Layer 2"><g id="Layer_1-2" data-name="Layer 1"><g id="Layer_2-2" data-name="Layer 2"><g id="Layer_2-2-2" data-name="Layer 2-2"><path class="cls-1" d="M83.22,50.67l-.51-.88-2.09-3.58L81.91,44l1.31-2.25a18.28,18.28,0,0,0,2.43-7.24,17.76,17.76,0,0,0-.25-5.77A19.18,19.18,0,0,0,74.58,15.32a20,20,0,0,0-8.32-1.77H61.51l-2.32-4a19,19,0,0,0-6.58-6.7A19.21,19.21,0,0,0,47.24.61a20.49,20.49,0,0,0-5-.61H42a20.39,20.39,0,0,0-5.64.85A19.05,19.05,0,0,0,25,10l-2,3.58H19.53a20.16,20.16,0,0,0-9.26,2.22,19.36,19.36,0,0,0-7.68,7.31A18.82,18.82,0,0,0,.72,27.43a18.11,18.11,0,0,0,1.6,13.94l.78,1.41L5,46.21,3.72,48.56l-1.38,2.5A18.23,18.23,0,0,0,.42,63.83a19,19,0,0,0,2.17,5.53A20.35,20.35,0,0,0,5.34,73,19.64,19.64,0,0,0,10,76.49a20.08,20.08,0,0,0,9.56,2.39h3.54l2,3.57a19.14,19.14,0,0,0,6.61,7,19.9,19.9,0,0,0,10.33,3h.26A20.34,20.34,0,0,0,49,91.29a18.63,18.63,0,0,0,5.1-2.7,19.17,19.17,0,0,0,5.12-5.75l2.32-4H66.3a19.92,19.92,0,0,0,9-2.12A18.29,18.29,0,0,0,80,73.41a18.65,18.65,0,0,0,3.3-4.25,17.73,17.73,0,0,0,1.73-4,17.54,17.54,0,0,0,.73-5.76A18.18,18.18,0,0,0,83.22,50.67Zm-17-31.35a14.22,14.22,0,0,1,5.4,1,13.27,13.27,0,0,1,6.64,5.79,12.42,12.42,0,0,1,1.1,2.51,12.18,12.18,0,0,1,.44,5.78,12.7,12.7,0,0,1-1.6,4.42l-1,1.65L73.59,34.3l-1.73-2.95-1.67-2.87-3.18,0v0l-3.36-.06-10.71-.16L46,28.13,38,28l3.88-6.7,1.16-2ZM19.53,73.11a14.34,14.34,0,0,1-6.66-1.62,13.48,13.48,0,0,1-4.46-3.8c-.3-.41-.59-.83-.85-1.27a14.91,14.91,0,0,1-1.15-2.5,12.33,12.33,0,0,1-.51-5.78,13,13,0,0,1,1.48-4.29l.93-1.68,3.35,6.06,1.08,2,2.14,3.85h3.28l3.32,0,11.22.17,6.8.11,6.54.1L42.91,70l-1.79,3.09Zm38.68,0-3.37,5.77-.62,1.06a13.47,13.47,0,0,1-8.31,6.25,14.3,14.3,0,0,1-5.85.3,14.17,14.17,0,0,1-5.47-2,13.45,13.45,0,0,1-4.46-4.78l-.44-.79H44.45L46.11,76l.19-.32,1.49-2.56,4.9-8.47L56,58.91l-6.6-.09L36,58.61l-6.8-.11-8.77-.13H18.27l-2.18-4L13,48.71l-1.37-2.5-1.65-3-.19-.35-1.49-2.6-.93-1.68a12.85,12.85,0,0,1-1.59-5.31,12.33,12.33,0,0,1,1-5.75A16.65,16.65,0,0,1,7.56,26a12.67,12.67,0,0,1,1.15-1.64,13.42,13.42,0,0,1,4.55-3.61,14.21,14.21,0,0,1,6.27-1.43h.35L16.3,25.8l-1,1.86-2.19,4,1.06,1.78.66,1.08,1.71,2.85L20,43l1.39,2.32,2.11,3.51h2.49l4.3.06,24.63.39,4,.06,1.36,2.26L64.67,59l.91,1.52L63.07,64.8ZM78.93,65a10.45,10.45,0,0,1-.63,1.25,12.54,12.54,0,0,1-1.39,2,13.51,13.51,0,0,1-4.61,3.52,14.41,14.41,0,0,1-6,1.31H64.89l4-6.91h0l.76-1.3,2.56-4.37-.83-1.37-.87-1.45-1.69-2.82L65.59,49.5h0L63.49,46l-1.37-2.3-3.94-.06H55.33l-26.06-.41H26.74l-2.09-3.49L21,33.59l-1.21-2,2.08-3.75,4.67-8.44,1.59-2.89,1.59-2.88.44-.79a13.37,13.37,0,0,1,4-4.46A13.8,13.8,0,0,1,39.46,6a15.18,15.18,0,0,1,2.6-.26h.18a15.67,15.67,0,0,1,1.94.12,13.65,13.65,0,0,1,5.53,2,13.33,13.33,0,0,1,4.51,4.63l.61,1.06H39.75l-1.23,2.11-.44.77-1.67,2.89-5,8.59-3.32,5.71,6.61.11L49.5,34h0l6.8.1,7.33.12H66.9l1.69,2.89,3.94,6.74,1.38,2.35L75.58,49l.36.62,1.31,2.24,1,1.65A12.5,12.5,0,0,1,78.93,65Z"/><g class="cls-2"><g class="cls-2"><path class="cls-3" d="M116.25,68.45a14.68,14.68,0,0,1-9-2.78,14.84,14.84,0,0,1-5.33-8l7.65-3A10,10,0,0,0,111.83,59a5.7,5.7,0,0,0,4.42,1.72,7.58,7.58,0,0,0,1.8-.21,4.64,4.64,0,0,0,1.5-.65,3.69,3.69,0,0,0,1.07-1.12,2.89,2.89,0,0,0,.42-1.56,3.72,3.72,0,0,0-1.46-3,10.76,10.76,0,0,0-2.08-1.3,35.13,35.13,0,0,0-3.28-1.38l-2.28-.83a18,18,0,0,1-3-1.43A13.18,13.18,0,0,1,106.16,47a10.86,10.86,0,0,1-2-3,8.89,8.89,0,0,1-.78-3.77,10.15,10.15,0,0,1,.88-4.21,9.82,9.82,0,0,1,2.5-3.41,11.84,11.84,0,0,1,3.9-2.26,14.48,14.48,0,0,1,5-.83,14.73,14.73,0,0,1,5,.75,12.17,12.17,0,0,1,3.54,1.92,9.66,9.66,0,0,1,2.31,2.63,15.72,15.72,0,0,1,1.33,2.81l-7,3A5.81,5.81,0,0,0,119,38a5,5,0,0,0-3.23-1,5.68,5.68,0,0,0-3.3.86A2.61,2.61,0,0,0,111.26,40a3.24,3.24,0,0,0,1.25,2.49,13.84,13.84,0,0,0,4.42,2.19l2.29.78a18,18,0,0,1,7.33,4.31,10.09,10.09,0,0,1,2.6,7.28,10.33,10.33,0,0,1-1.17,5,11,11,0,0,1-3,3.53,13.07,13.07,0,0,1-4.16,2.11A15.54,15.54,0,0,1,116.25,68.45Z"/></g><g class="cls-2"><path class="cls-3" d="M152.7,68.45a19.9,19.9,0,0,1-7.8-1.51,18.91,18.91,0,0,1-10.32-10.29,20.49,20.49,0,0,1,0-15.29,19,19,0,0,1,4.11-6.16,19.31,19.31,0,0,1,6.21-4.14,21,21,0,0,1,15.6,0,19.24,19.24,0,0,1,6.22,4.14,18.83,18.83,0,0,1,4.1,6.16,20.36,20.36,0,0,1,0,15.29,18.83,18.83,0,0,1-4.1,6.16,19.06,19.06,0,0,1-6.22,4.13A19.83,19.83,0,0,1,152.7,68.45Zm0-7.69a12,12,0,0,0,4.5-.84,10.55,10.55,0,0,0,3.67-2.39,11.18,11.18,0,0,0,2.44-3.72,13.59,13.59,0,0,0,0-9.62,11.24,11.24,0,0,0-2.44-3.71,10.72,10.72,0,0,0-3.67-2.4,12.67,12.67,0,0,0-9,0,10.79,10.79,0,0,0-3.64,2.4,11.27,11.27,0,0,0-2.45,3.71,13.59,13.59,0,0,0,0,9.62,11.21,11.21,0,0,0,2.45,3.72,10.62,10.62,0,0,0,3.64,2.39A12,12,0,0,0,152.7,60.76Z"/></g><g class="cls-2"><path class="cls-3" d="M210.17,61.59a18.53,18.53,0,0,1-14.93,6.86,19.76,19.76,0,0,1-7.75-1.51,19.44,19.44,0,0,1,0-35.88,19.93,19.93,0,0,1,7.75-1.5,18.64,18.64,0,0,1,7.93,1.56,19.55,19.55,0,0,1,6.11,4.52l-5.67,5.51a12.85,12.85,0,0,0-3.48-2.78,9.91,9.91,0,0,0-4.83-1.12,12.44,12.44,0,0,0-4.56.83,10.78,10.78,0,0,0-3.66,2.4,11.27,11.27,0,0,0-2.45,3.71,13.59,13.59,0,0,0,0,9.62,11.21,11.21,0,0,0,2.45,3.72,10.6,10.6,0,0,0,3.66,2.39,12.24,12.24,0,0,0,4.56.84,10.5,10.5,0,0,0,5.14-1.2,13.1,13.1,0,0,0,4-3.43Z"/><path class="cls-3" d="M215.78,30.39h8.11V67.62h-8.11Z"/><path class="cls-3" d="M242.2,30.39h9.36l13.93,37.23h-8.94l-2.86-8.32H240.07l-2.86,8.32h-9Zm8.89,21.53-2.7-7.8-1.25-4.58h-.52l-1.25,4.58-2.7,7.8Z"/><path class="cls-3" d="M269.86,30.39H278V59.92h15.6v7.7H269.86Z"/></g><g class="cls-2"><path class="cls-3" d="M326.74,46.92H345.1a14.71,14.71,0,0,1,.28,1.62,13.79,13.79,0,0,1,.13,1.87,20.11,20.11,0,0,1-1.14,7A16,16,0,0,1,341,62.84,17.46,17.46,0,0,1,335,67,20.65,20.65,0,0,1,327,68.45,20.36,20.36,0,0,1,319.28,67,19.85,19.85,0,0,1,313,63a18.79,18.79,0,0,1-4.26-6.14,20.41,20.41,0,0,1,0-15.65A18.79,18.79,0,0,1,313,35a19.85,19.85,0,0,1,6.32-4A20.36,20.36,0,0,1,327,29.56a18.75,18.75,0,0,1,14.4,6L335.84,41A13.74,13.74,0,0,0,332,38.21a12.09,12.09,0,0,0-5.12-1,11.82,11.82,0,0,0-4.5.86,11.34,11.34,0,0,0-3.69,2.39,11.2,11.2,0,0,0-2.5,3.69,13.17,13.17,0,0,0,0,9.62,11,11,0,0,0,2.52,3.7,11.72,11.72,0,0,0,3.75,2.39,12.14,12.14,0,0,0,4.57.86,11.08,11.08,0,0,0,7.65-2.55,9.16,9.16,0,0,0,1.63-2,11.37,11.37,0,0,0,1.23-2.58H326.74Z"/><path class="cls-3" d="M359.45,38.08v7.08h14.77v7.69H359.45v7.07h16.43v7.7H351.34V30.39h24.54v7.69Z"/><path class="cls-3" d="M382.33,30.39h9.36l13.42,23h.52l-.52-7.17V30.39h8V67.62h-8.52L390.34,43.28h-.52l.52,7.18V67.62h-8Z"/></g></g></g></g></g></g></svg>