<svg xmlns="http://www.w3.org/2000/svg" xmlns:xlink="http://www.w3.org/1999/xlink" viewBox="0 0 85.77 92.42"><defs><style>.cls-1{fill:url(#linear-gradient);}</style><linearGradient id="linear-gradient" y1="46.21" x2="85.77" y2="46.21" gradientUnits="userSpaceOnUse"><stop offset="0" stop-color="#92278f"/><stop offset="1" stop-color="#ee2a7b"/></linearGradient></defs><g id="Layer_2" data-name="Layer 2"><g id="Layer_2-2" data-name="Layer 2"><path class="cls-1" d="M83.21,50.67l-.51-.88-2.09-3.58L81.9,44l1.31-2.25a18.44,18.44,0,0,0,2.43-7.24,18,18,0,0,0-.25-5.77A19.22,19.22,0,0,0,74.57,15.32a20,20,0,0,0-8.32-1.77H61.5l-2.32-4A19.12,19.12,0,0,0,52.6,2.85,19.56,19.56,0,0,0,47.23.61a20.54,20.54,0,0,0-5-.61H42a20.2,20.2,0,0,0-5.64.85A19.06,19.06,0,0,0,25,10l-2,3.58H19.52a20.06,20.06,0,0,0-9.26,2.22,19.35,19.35,0,0,0-7.68,7.31A18.26,18.26,0,0,0,.71,27.43,17.85,17.85,0,0,0,0,33.19a18.35,18.35,0,0,0,2.31,8.18l.78,1.41L5,46.21,3.71,48.56l-1.38,2.5a18.58,18.58,0,0,0-2.23,7,18.34,18.34,0,0,0,.31,5.77,18.73,18.73,0,0,0,2.17,5.53A19.91,19.91,0,0,0,5.33,73,19.25,19.25,0,0,0,10,76.49a20,20,0,0,0,9.56,2.39h3.54l2,3.57a19.1,19.1,0,0,0,6.61,7,19.85,19.85,0,0,0,10.33,3h.26A20.21,20.21,0,0,0,49,91.29a18.89,18.89,0,0,0,5.1-2.7,19.15,19.15,0,0,0,5.12-5.75l2.32-4h4.75a19.88,19.88,0,0,0,9-2.12A18.53,18.53,0,0,0,80,73.41a18.91,18.91,0,0,0,3.3-4.25,18.42,18.42,0,0,0,1.73-4,17.92,17.92,0,0,0,.73-5.76A18.27,18.27,0,0,0,83.21,50.67Zm-17-31.35a14.26,14.26,0,0,1,5.4,1,13.52,13.52,0,0,1,4.78,3.26,14.23,14.23,0,0,1,1.86,2.53,12.93,12.93,0,0,1,1.1,2.51,12.34,12.34,0,0,1,.44,5.78,12.88,12.88,0,0,1-1.6,4.42l-1,1.65-3.61-6.17-1.73-2.95-1.67-2.87L67,28.46l0,.07,0-.07-3.36-.06-10.71-.16L46,28.13,38,28l3.88-6.7,1.16-2Zm4,15h0l0,0ZM19.52,73.11a14.22,14.22,0,0,1-6.66-1.62,13.46,13.46,0,0,1-4.46-3.8c-.3-.41-.59-.83-.85-1.27a14,14,0,0,1-1.15-2.5,12.24,12.24,0,0,1-.51-5.78,13,13,0,0,1,1.48-4.29l.93-1.68,3.35,6.06,1.08,2,2.14,3.85,2.28,0,1,0,3.32.05,11.22.17,6.8.11,6.54.1L42.9,70l-1.79,3.09Zm38.68,0-3.37,5.77-.62,1.06a13.51,13.51,0,0,1-8.31,6.25,14.82,14.82,0,0,1-3.85.47,15,15,0,0,1-2-.17,14,14,0,0,1-5.47-2,13.39,13.39,0,0,1-4.46-4.78l-.44-.79H44.44L46.1,76l.19-.32,1.49-2.56,4.9-8.47L56,58.91l-6.6-.09L36,58.61l-6.8-.11-8.77-.13-2.17,0-2.18-4L13,48.71l-1.37-2.5-1.65-3-.19-.35L8.3,40.26l-.93-1.68a12.68,12.68,0,0,1-1.59-5.31,12.23,12.23,0,0,1,1-5.75A15.33,15.33,0,0,1,7.55,26,11.86,11.86,0,0,1,8.7,24.36a13.3,13.3,0,0,1,4.55-3.61,14.15,14.15,0,0,1,6.27-1.43h.35L16.29,25.8l-1,1.86-2.19,4,1.06,1.78.66,1.08,1.71,2.85L19.94,43l1.39,2.32,2.11,3.51,2.49,0,4.3.06,24.63.39,4,.06,1.36,2.26,4.44,7.37.91,1.52L63.06,64.8ZM78.92,65a13.3,13.3,0,0,1-.63,1.25,13.89,13.89,0,0,1-1.39,2,13.57,13.57,0,0,1-4.61,3.52,14.37,14.37,0,0,1-6,1.31H64.88l4-6.91h0l.76-1.3,2.56-4.37-.83-1.37-.87-1.45-1.69-2.82-3.23-5.36h0L63.48,46,62.11,43.7l-3.94-.06-2.85,0h0l-26.06-.41-2.53,0-2.09-3.49-3.7-6.15-1.21-2,2.08-3.75,4.67-8.44,1.59-2.89,1.59-2.88.44-.79a13.2,13.2,0,0,1,4-4.46A13.75,13.75,0,0,1,39.45,6a15,15,0,0,1,2.6-.26h.18a15.43,15.43,0,0,1,1.94.12,13.68,13.68,0,0,1,5.53,2,13.34,13.34,0,0,1,4.51,4.63l.61,1.06H39.74l-1.23,2.11-.44.77L36.4,19.32l-5,8.59-3.32,5.71,6.61.11,14.8.23h0l6.8.1,7.33.12,3.27,0,1.69,2.89,3.94,6.74,1.38,2.35,1.67,2.85.36.62,1.31,2.24,1,1.65A12.54,12.54,0,0,1,78.92,65Z"/></g></g></svg>